<?xml version="1.0" encoding="utf-8"?>
<!-- Generator: Adobe Illustrator 23.0.6, SVG Export Plug-In . SVG Version: 6.00 Build 0)  -->
<svg version="1.1" id="Layer_1" xmlns="http://www.w3.org/2000/svg" xmlns:xlink="http://www.w3.org/1999/xlink" x="0px" y="0px"
	 viewBox="0 0 597.2 596.6" style="enable-background:new 0 0 597.2 596.6;" xml:space="preserve">
<style type="text/css">
	.st0{fill:none;stroke:#DD7626;stroke-width:3;}
	.st1{fill:#FFFFFF;stroke:#DD7626;stroke-width:6;}
	.st2{fill:none;stroke:#000000;stroke-width:0.3;}
	.st3{fill:#255078;}
	.st4{fill:#99B5CD;}
	.st5{fill:#DD7626;}
	.st6{fill:#688CB1;}
</style>
<g>
	<g>
		<g>
			<path class="st0" d="M593.7,297.9c0,38.5-7.6,77.1-22.4,112.8c-14.8,35.6-36.6,68.3-63.9,95.6c-27.3,27.3-59.9,49.1-95.6,63.9
				c-35.6,14.8-74.2,22.4-112.8,22.4c-38.5,0-77.1-7.6-112.8-22.4c-35.6-14.8-68.3-36.6-95.6-63.9c-27.3-27.3-49.1-59.9-63.9-95.6
				C12,375,4.5,336.4,4.4,297.9c0-38.6,7.6-77.1,22.4-112.8c14.8-35.6,36.6-68.3,63.9-95.6c27.3-27.3,59.9-49.1,95.6-63.9
				c35.6-14.8,74.2-22.4,112.8-22.4c38.6,0,77.1,7.6,112.8,22.4c35.6,14.8,68.3,36.6,95.6,63.9c27.3,27.3,49.1,59.9,63.9,95.6
				C586.1,220.8,593.7,259.3,593.7,297.9"/>
			<path class="st1" d="M580.6,297.9c0,36.9-7.3,73.7-21.4,107.8c-14.1,34.1-35,65.3-61.1,91.3c-26.1,26.1-57.3,47-91.3,61.1
				c-34,14.1-70.9,21.4-107.8,21.4c-36.9,0-73.7-7.3-107.8-21.4C157.3,544,126,523,100,497c-26.1-26.1-47-57.3-61.1-91.3
				c-14.1-34-21.4-70.9-21.4-107.8c0-36.9,7.3-73.7,21.4-107.8c14.1-34.1,35-65.3,61.1-91.3c26.1-26.1,57.3-47,91.3-61.1
				c34-14.1,70.9-21.4,107.8-21.4c36.9,0,73.7,7.3,107.8,21.4c34.1,14.1,65.3,35,91.3,61.1c26.1,26.1,47,57.3,61.1,91.3
				C573.4,224.1,580.6,261,580.6,297.9"/>
		</g>
	</g>
</g>
<g>
	<path class="st3" d="M270.3,276.1l80.9,190.4H380l-97.9-230.6c-2.1-4.9-6.9-8.1-12.2-8.1h-0.2c-5.4,0.1-10.2,3.4-12.2,8.4
		l-91.3,230.3h28.6L270.3,276.1z"/>
	<path class="st4" d="M396.2,467.1v-9.7c0-7.5,2.4-12.6,9.1-12.6c4.9,0,7.4,2.9,8.6,7.4h0.1c0.4-4.9,3.6-8.3,8.7-8.3
		c7.7,0,9.6,6.4,9.6,13.7v9.6H396.2z M411.6,461.9v-2.8c0-5-0.5-9.2-5.8-9.2c-4.3,0-5.4,3.7-5.4,6.6v5.4H411.6z M428,461.9v-3.9
		c0-4.6-1-8.8-5.8-8.8c-5.6,0-6.3,4.9-6.3,9.3v3.4H428z"/>
	<rect x="396.2" y="430.2" class="st4" width="35.9" height="5.1"/>
	<path class="st4" d="M396.2,421.3v-8.8c0-7.1,1.1-14,9.7-14c4.4,0,7.5,3.2,8.2,7.4h0.1c0.6-1.6,1.4-2.4,3.6-3.5l14.3-6.8v5.9
		l-12.5,5.5c-3.5,1.6-3.5,3.3-3.5,6v3.1h16v5.2H396.2z M411.7,416.1v-4.4c0-4.9-2.2-7.8-5.6-7.8c-3.2,0-5.3,2.5-5.3,7.2v4.9H411.7z"
		/>
	<path class="st4" d="M396.2,378.2v-5.4l35.9-15.2v5.6l-9.1,3.7v17.6l9.1,3.6v5.4L396.2,378.2z M401.1,375.6l17.8,7.2v-14.3
		L401.1,375.6z"/>
	<path class="st5" d="M419.3,339.4c0.9,0,1.8,0.2,2.7,0.5c0.8,0.4,1.6,0.9,2.3,1.5c0.7,0.7,1.2,1.4,1.5,2.3c0.4,0.8,0.5,1.7,0.5,2.7
		c0,1-0.2,1.9-0.5,2.7c-0.4,0.8-0.9,1.6-1.5,2.3c-0.7,0.7-1.4,1.2-2.3,1.5c-0.8,0.4-1.7,0.5-2.7,0.5c-0.9,0-1.8-0.2-2.7-0.5
		c-0.8-0.4-1.6-0.9-2.3-1.5c-0.7-0.7-1.2-1.4-1.5-2.3c-0.4-0.8-0.5-1.7-0.5-2.7c0-0.9,0.2-1.8,0.5-2.7c0.3-0.8,0.9-1.6,1.5-2.3
		c0.7-0.7,1.4-1.2,2.3-1.5C417.5,339.6,418.4,339.4,419.3,339.4"/>
	<rect x="396.2" y="323.5" class="st4" width="35.9" height="5.1"/>
	<path class="st4" d="M396.2,303v-5.4l35.9-15.2v5.6l-9.1,3.6v17.6l9.1,3.7v5.4L396.2,303z M401.1,300.4l17.8,7.2v-14.3L401.1,300.4
		z"/>
	<path class="st4" d="M401.6,260.9c-1,2.6-1.5,4.1-1.5,6.7c0,2.9,1,6.3,4.8,6.3c6.9,0,5.3-15.4,17.1-15.4c7.7,0,10.7,5.9,10.7,13.1
		c0,2.5-0.7,5-1.5,7.4l-4.8-0.5c0.7-1.8,1.8-4.8,1.8-7.5c0-2.9-1.6-7.1-5.9-7.1c-8,0-5.8,15.4-17,15.4c-6.4,0-9.8-5.1-9.8-11.5
		c0-2.4,0.4-5.2,1.3-7.7L401.6,260.9z"/>
	<path class="st4" d="M396.2,251.8V242c0-7.5,2.4-12.6,9.1-12.6c4.9,0,7.4,2.9,8.6,7.4h0.1c0.4-4.9,3.6-8.3,8.7-8.3
		c7.7,0,9.6,6.4,9.6,13.7v9.6H396.2z M411.6,246.6v-2.8c0-5-0.5-9.2-5.8-9.2c-4.3,0-5.4,3.7-5.4,6.6v5.4H411.6z M428,246.6v-3.9
		c0-4.6-1-8.8-5.8-8.8c-5.6,0-6.3,4.9-6.3,9.3v3.3H428z"/>
	<path class="st6" d="M221.3,413.1c-9.4,0-18.2-2.1-26.3-6.4c-24-12.7-38.6-43.4-39.9-84.2c-2.6-77.8,42.7-171,100.9-207.7
		c26.2-16.5,51.9-19.6,72.4-8.7c24,12.7,38.6,43.4,39.9,84.2c0.9,28.3-4.4,59.5-15.4,90.3l-3.6-1.3c10.9-30.3,16.1-61,15.2-88.9
		c-1.3-39.4-15.1-68.9-37.9-81c-19.3-10.2-43.6-7.2-68.6,8.6c-57.3,36.1-101.7,127.8-99.2,204.4c1.3,39.4,15.1,68.9,37.9,81
		c19.3,10.2,43.7,7.2,68.6-8.6l2,3.2C251.5,408.1,235.8,413.1,221.3,413.1"/>
	<path class="st3" d="M270.7,424c-14.2,0-25.8-11.5-25.8-25.8c0-14.2,11.5-25.8,25.8-25.8c14.2,0,25.8,11.5,25.8,25.8
		C296.4,412.5,284.9,424,270.7,424"/>
</g>
</svg>
